<svg width="375" height="48" viewBox="0 0 375 48" fill="none" xmlns="http://www.w3.org/2000/svg">
<rect width="375" height="48" fill="#237BC0"/>
<path d="M37.7518 17.4673C38.3434 17.4714 38.919 17.576 39.4784 17.7812C40.0418 17.9825 40.5489 18.3125 40.9997 18.7713C41.4504 19.2261 41.8086 19.8358 42.0743 20.6005C42.3399 21.3652 42.4727 22.311 42.4727 23.4379C42.4767 24.5004 42.364 25.4502 42.1346 26.2873C41.9093 27.1204 41.5853 27.8247 41.1627 28.4002C40.7401 28.9757 40.231 29.4144 39.6353 29.7163C39.0397 30.0181 38.3696 30.169 37.625 30.169C36.8443 30.169 36.152 30.0161 35.5483 29.7102C34.9487 29.4044 34.4637 28.9858 34.0934 28.4545C33.7232 27.9233 33.4958 27.3156 33.4113 26.6314H35.6147C35.7274 27.1224 35.9568 27.5128 36.303 27.8026C36.6531 28.0883 37.0938 28.2312 37.625 28.2312C38.4823 28.2312 39.1423 27.8589 39.6052 27.1143C40.068 26.3698 40.2994 25.3355 40.2994 24.0114H40.2149C40.0177 24.3655 39.7621 24.6714 39.4482 24.929C39.1343 25.1825 38.7781 25.3777 38.3797 25.5146C37.9852 25.6514 37.5667 25.7198 37.124 25.7198C36.3995 25.7198 35.7476 25.5468 35.168 25.2006C34.5925 24.8545 34.1357 24.3796 33.7976 23.7759C33.4636 23.1722 33.2946 22.482 33.2905 21.7053C33.2905 20.9003 33.4757 20.1779 33.8459 19.538C34.2202 18.8941 34.7414 18.387 35.4095 18.0167C36.0776 17.6424 36.8584 17.4593 37.7518 17.4673ZM37.7579 19.2784C37.3232 19.2784 36.9308 19.3851 36.5807 19.5984C36.2345 19.8076 35.9609 20.0934 35.7596 20.4556C35.5624 20.8138 35.4638 21.2143 35.4638 21.657C35.4678 22.0956 35.5665 22.4941 35.7596 22.8523C35.9568 23.2105 36.2245 23.4942 36.5625 23.7035C36.9046 23.9128 37.295 24.0174 37.7337 24.0174C38.0597 24.0174 38.3636 23.955 38.6453 23.8303C38.927 23.7055 39.1725 23.5324 39.3818 23.3111C39.5951 23.0857 39.7601 22.8301 39.8768 22.5444C39.9976 22.2586 40.0559 21.9568 40.0519 21.6388C40.0519 21.2163 39.9513 20.8259 39.75 20.4677C39.5528 20.1095 39.2812 19.8217 38.9351 19.6044C38.593 19.3871 38.2006 19.2784 37.7579 19.2784ZM45.8534 28.5149C45.4871 28.5149 45.1732 28.3861 44.9116 28.1286C44.65 27.867 44.5212 27.553 44.5253 27.1868C44.5212 26.8246 44.65 26.5147 44.9116 26.2571C45.1732 25.9995 45.4871 25.8707 45.8534 25.8707C46.2075 25.8707 46.5154 25.9995 46.777 26.2571C47.0427 26.5147 47.1775 26.8246 47.1815 27.1868C47.1775 27.4323 47.1131 27.6557 46.9883 27.8569C46.8676 28.0581 46.7066 28.2191 46.5054 28.3398C46.3082 28.4566 46.0908 28.5149 45.8534 28.5149ZM45.8534 22.3874C45.4871 22.3874 45.1732 22.2586 44.9116 22.0011C44.65 21.7395 44.5212 21.4255 44.5253 21.0593C44.5212 20.6971 44.65 20.3872 44.9116 20.1296C45.1732 19.868 45.4871 19.7372 45.8534 19.7372C46.2075 19.7372 46.5154 19.868 46.777 20.1296C47.0427 20.3872 47.1775 20.6971 47.1815 21.0593C47.1775 21.3008 47.1131 21.5221 46.9883 21.7234C46.8676 21.9246 46.7066 22.0856 46.5054 22.2063C46.3082 22.3271 46.0908 22.3874 45.8534 22.3874ZM49.1903 27.706V25.9251L54.4364 17.6364H55.9215V20.1719H55.0159L51.4843 25.7681V25.8647H58.8071V27.706H49.1903ZM55.0884 30V27.1626L55.1125 26.3658V17.6364H57.2255V30H55.0884ZM65.5987 17.6364V30H63.359V19.8157H63.2865L60.3948 21.663V19.6104L63.4676 17.6364H65.5987Z" fill="white"/>
<path fill-rule="evenodd" clip-rule="evenodd" d="M298.53 19.0329C298.53 18.3999 298.053 17.8867 297.464 17.8867H296.397C295.808 17.8867 295.33 18.3999 295.33 19.0329V28.9669C295.33 29.5999 295.808 30.1131 296.397 30.1131H297.464C298.053 30.1131 298.53 29.5999 298.53 28.9669V19.0329ZM291.096 20.332H292.163C292.752 20.332 293.23 20.8575 293.23 21.5057V28.9394C293.23 29.5876 292.752 30.1131 292.163 30.1131H291.096C290.507 30.1131 290.03 29.5876 290.03 28.9394V21.5057C290.03 20.8575 290.507 20.332 291.096 20.332ZM286.764 22.981H285.698C285.109 22.981 284.631 23.5132 284.631 24.1697V28.9244C284.631 29.5809 285.109 30.1131 285.698 30.1131H286.764C287.354 30.1131 287.831 29.5809 287.831 28.9244V24.1697C287.831 23.5132 287.354 22.981 286.764 22.981ZM281.464 25.4263H280.397C279.808 25.4263 279.33 25.9509 279.33 26.598V28.9414C279.33 29.5885 279.808 30.1131 280.397 30.1131H281.464C282.053 30.1131 282.53 29.5885 282.53 28.9414V26.598C282.53 25.9509 282.053 25.4263 281.464 25.4263Z" fill="white"/>
<path fill-rule="evenodd" clip-rule="evenodd" d="M315.102 20.3022C317.589 20.3023 319.981 21.2244 321.783 22.8779C321.919 23.0055 322.136 23.0039 322.27 22.8743L323.567 21.6108C323.635 21.545 323.672 21.456 323.672 21.3633C323.671 21.2706 323.633 21.182 323.564 21.117C318.833 16.7423 311.369 16.7423 306.638 21.117C306.57 21.1819 306.531 21.2705 306.53 21.3632C306.53 21.4559 306.567 21.545 306.635 21.6108L307.933 22.8743C308.066 23.0041 308.284 23.0057 308.419 22.8779C310.222 21.2243 312.614 20.3022 315.102 20.3022ZM315.098 24.5225C316.456 24.5224 317.764 25.0342 318.771 25.9583C318.907 26.0894 319.121 26.0866 319.254 25.9519L320.541 24.6326C320.609 24.5634 320.646 24.4695 320.645 24.3719C320.644 24.2744 320.605 24.1813 320.536 24.1135C317.472 21.2227 312.727 21.2227 309.663 24.1135C309.594 24.1813 309.555 24.2744 309.554 24.372C309.553 24.4696 309.591 24.5635 309.658 24.6326L310.945 25.9519C311.078 26.0866 311.292 26.0894 311.429 25.9583C312.434 25.0348 313.742 24.5231 315.098 24.5225ZM317.623 27.316C317.625 27.4214 317.588 27.523 317.52 27.5968L315.344 30.0515C315.28 30.1236 315.193 30.1642 315.102 30.1642C315.011 30.1642 314.924 30.1236 314.86 30.0515L312.683 27.5968C312.616 27.5229 312.579 27.4213 312.581 27.316C312.583 27.2106 312.624 27.1108 312.694 27.0402C314.084 25.7263 316.12 25.7263 317.51 27.0402C317.58 27.1109 317.621 27.2107 317.623 27.316Z" fill="white"/>
<rect opacity="0.35" x="332.172" y="18" width="24" height="12" rx="3.8" stroke="white"/>
<path opacity="0.4" d="M357.672 22.2812V26.3567C358.477 26.0116 359 25.2086 359 24.319C359 23.4294 358.477 22.6264 357.672 22.2812Z" fill="white"/>
<rect x="333.672" y="19.5" width="21" height="9" rx="2.5" fill="white"/>
</svg>
